<mxfile host="app.diagrams.net" modified="2021-11-01T04:48:01.128Z" agent="5.0 (Windows NT 10.0; Win64; x64) AppleWebKit/537.36 (KHTML, like Gecko) Chrome/95.0.4638.54 Safari/537.36" etag="bu5OCqynJXJqTEPwcNZJ" version="15.6.3" type="github">
  <diagram id="5HZILRuZKxa_RSL5tUD2" name="Page-1">
    <mxGraphModel dx="1422" dy="754" grid="1" gridSize="10" guides="1" tooltips="1" connect="1" arrows="1" fold="1" page="1" pageScale="1" pageWidth="850" pageHeight="1100" math="0" shadow="0">
      <root>
        <mxCell id="0" />
        <mxCell id="1" parent="0" />
        <mxCell id="BjNNB8ryPSe3rXLiuwh6-18" value="" style="shape=image;html=1;verticalAlign=top;verticalLabelPosition=bottom;labelBackgroundColor=#ffffff;imageAspect=0;aspect=fixed;image=https://cdn0.iconfinder.com/data/icons/set-app-incredibles/24/Image-01-128.png" vertex="1" parent="1">
          <mxGeometry x="312" y="513" width="95" height="95" as="geometry" />
        </mxCell>
        <mxCell id="BjNNB8ryPSe3rXLiuwh6-17" value="" style="shape=image;html=1;verticalAlign=top;verticalLabelPosition=bottom;labelBackgroundColor=#ffffff;imageAspect=0;aspect=fixed;image=https://cdn0.iconfinder.com/data/icons/set-app-incredibles/24/Image-01-128.png" vertex="1" parent="1">
          <mxGeometry x="173" y="518" width="95" height="95" as="geometry" />
        </mxCell>
        <mxCell id="BjNNB8ryPSe3rXLiuwh6-1" value="" style="verticalLabelPosition=bottom;verticalAlign=top;html=1;shadow=0;dashed=0;strokeWidth=1;shape=mxgraph.android.phone2;strokeColor=#c0c0c0;" vertex="1" parent="1">
          <mxGeometry x="150" y="140" width="280" height="480" as="geometry" />
        </mxCell>
        <mxCell id="BjNNB8ryPSe3rXLiuwh6-3" value="Business Search" style="text;html=1;strokeColor=none;fillColor=none;align=center;verticalAlign=middle;whiteSpace=wrap;rounded=0;" vertex="1" parent="1">
          <mxGeometry x="200" y="180" width="180" height="30" as="geometry" />
        </mxCell>
        <mxCell id="BjNNB8ryPSe3rXLiuwh6-4" value="" style="rounded=1;whiteSpace=wrap;html=1;" vertex="1" parent="1">
          <mxGeometry x="170" y="210" width="240" height="60" as="geometry" />
        </mxCell>
        <mxCell id="BjNNB8ryPSe3rXLiuwh6-5" value="" style="html=1;verticalLabelPosition=bottom;align=center;labelBackgroundColor=#ffffff;verticalAlign=top;strokeWidth=2;strokeColor=#0080F0;shadow=0;dashed=0;shape=mxgraph.ios7.icons.looking_glass;" vertex="1" parent="1">
          <mxGeometry x="180" y="225" width="30" height="30" as="geometry" />
        </mxCell>
        <mxCell id="BjNNB8ryPSe3rXLiuwh6-6" value="&lt;font style=&quot;font-size: 18px&quot;&gt;Cost Effective&lt;/font&gt;" style="text;html=1;strokeColor=none;fillColor=none;align=center;verticalAlign=middle;whiteSpace=wrap;rounded=0;" vertex="1" parent="1">
          <mxGeometry x="170" y="290" width="130" height="30" as="geometry" />
        </mxCell>
        <mxCell id="BjNNB8ryPSe3rXLiuwh6-7" value="" style="shape=image;html=1;verticalAlign=top;verticalLabelPosition=bottom;labelBackgroundColor=#ffffff;imageAspect=0;aspect=fixed;image=https://cdn0.iconfinder.com/data/icons/set-app-incredibles/24/Image-01-128.png" vertex="1" parent="1">
          <mxGeometry x="170" y="320" width="95" height="95" as="geometry" />
        </mxCell>
        <mxCell id="BjNNB8ryPSe3rXLiuwh6-8" value="Name" style="text;html=1;strokeColor=none;fillColor=none;align=center;verticalAlign=middle;whiteSpace=wrap;rounded=0;" vertex="1" parent="1">
          <mxGeometry x="151" y="420" width="90" height="30" as="geometry" />
        </mxCell>
        <mxCell id="BjNNB8ryPSe3rXLiuwh6-9" value="Rating&amp;nbsp; Reviews" style="text;html=1;strokeColor=none;fillColor=none;align=center;verticalAlign=middle;whiteSpace=wrap;rounded=0;" vertex="1" parent="1">
          <mxGeometry x="181" y="450" width="90" height="30" as="geometry" />
        </mxCell>
        <mxCell id="BjNNB8ryPSe3rXLiuwh6-11" value="" style="shape=image;html=1;verticalAlign=top;verticalLabelPosition=bottom;labelBackgroundColor=#ffffff;imageAspect=0;aspect=fixed;image=https://cdn0.iconfinder.com/data/icons/set-app-incredibles/24/Image-01-128.png" vertex="1" parent="1">
          <mxGeometry x="309" y="315" width="95" height="95" as="geometry" />
        </mxCell>
        <mxCell id="BjNNB8ryPSe3rXLiuwh6-12" value="Name" style="text;html=1;strokeColor=none;fillColor=none;align=center;verticalAlign=middle;whiteSpace=wrap;rounded=0;" vertex="1" parent="1">
          <mxGeometry x="290" y="415" width="90" height="30" as="geometry" />
        </mxCell>
        <mxCell id="BjNNB8ryPSe3rXLiuwh6-13" value="Rating&amp;nbsp; Reviews" style="text;html=1;strokeColor=none;fillColor=none;align=center;verticalAlign=middle;whiteSpace=wrap;rounded=0;" vertex="1" parent="1">
          <mxGeometry x="320" y="445" width="90" height="30" as="geometry" />
        </mxCell>
        <mxCell id="BjNNB8ryPSe3rXLiuwh6-16" value="&lt;span style=&quot;font-size: 18px&quot;&gt;More expensive&lt;/span&gt;" style="text;html=1;strokeColor=none;fillColor=none;align=center;verticalAlign=middle;whiteSpace=wrap;rounded=0;" vertex="1" parent="1">
          <mxGeometry x="173" y="488" width="147" height="30" as="geometry" />
        </mxCell>
        <mxCell id="BjNNB8ryPSe3rXLiuwh6-19" value="" style="shape=image;html=1;verticalAlign=top;verticalLabelPosition=bottom;labelBackgroundColor=#ffffff;imageAspect=0;aspect=fixed;image=https://cdn0.iconfinder.com/data/icons/set-app-incredibles/24/Image-01-128.png" vertex="1" parent="1">
          <mxGeometry x="540" y="315" width="95" height="95" as="geometry" />
        </mxCell>
        <mxCell id="BjNNB8ryPSe3rXLiuwh6-20" value="" style="shape=image;html=1;verticalAlign=top;verticalLabelPosition=bottom;labelBackgroundColor=#ffffff;imageAspect=0;aspect=fixed;image=https://cdn0.iconfinder.com/data/icons/set-app-incredibles/24/Image-01-128.png" vertex="1" parent="1">
          <mxGeometry x="540" y="210" width="95" height="95" as="geometry" />
        </mxCell>
        <mxCell id="BjNNB8ryPSe3rXLiuwh6-21" value="" style="verticalLabelPosition=bottom;verticalAlign=top;html=1;shadow=0;dashed=0;strokeWidth=1;shape=mxgraph.android.phone2;strokeColor=#c0c0c0;" vertex="1" parent="1">
          <mxGeometry x="500" y="133" width="280" height="480" as="geometry" />
        </mxCell>
        <mxCell id="BjNNB8ryPSe3rXLiuwh6-22" value="Business Search" style="text;html=1;strokeColor=none;fillColor=none;align=center;verticalAlign=middle;whiteSpace=wrap;rounded=0;" vertex="1" parent="1">
          <mxGeometry x="550" y="173" width="180" height="30" as="geometry" />
        </mxCell>
        <mxCell id="BjNNB8ryPSe3rXLiuwh6-33" value="" style="shape=image;html=1;verticalAlign=top;verticalLabelPosition=bottom;labelBackgroundColor=#ffffff;imageAspect=0;aspect=fixed;image=https://cdn0.iconfinder.com/data/icons/set-app-incredibles/24/Image-01-128.png" vertex="1" parent="1">
          <mxGeometry x="540" y="420" width="95" height="95" as="geometry" />
        </mxCell>
      </root>
    </mxGraphModel>
  </diagram>
</mxfile>
